# xmcd
#
# Track frame offsets: 
#        150
#        17827
#        36977
#        56102
#        78275
#        96345
#        118470
#        135542
#        151870
#        171040
#        191217
#        214115
#        230302
#        249570
#        269782
#        300360
#
# Disc length: 4440 seconds
#
# Revision: 14
# Processed by: cddbd v1.5.2PL0 Copyright (c) Steve Scherf et al.
# Submitted via: ExactAudioCopyFreeDBPlugin 1.0
#
DISCID=e2115610
DTITLE=陶喆 - Ultrasound樂之路[Disc1]
DYEAR=2003
DGENRE=R&B
TTITLE0=今天沒回家
TTITLE1=王八蛋
TTITLE2=普通朋友
TTITLE3=小鎮姑娘
TTITLE4=沙灘
TTITLE5=飛機場的10:30
TTITLE6=MY ANATA
TTITLE7=我喜歡
TTITLE8=天天
TTITLE9=MELODY
TTITLE10=找自己
TTITLE11=寂寞的季節
TTITLE12=黑色柳丁
TTITLE13=愛很簡單
TTITLE14=RUNAWAY
TTITLE15=DATA
EXTD=
EXTT0=
EXTT1=
EXTT2=
EXTT3=
EXTT4=
EXTT5=
EXTT6=
EXTT7=
EXTT8=
EXTT9=
EXTT10=
EXTT11=
EXTT12=
EXTT13=
EXTT14=
EXTT15=
PLAYORDER=
